<svg version="1.1" id="Layer_1" xmlns="http://www.w3.org/2000/svg" xmlns:xlink="http://www.w3.org/1999/xlink" x="0px" y="0px"
	 width="100%" viewBox="0 0 1024 1024" enable-background="new 0 0 1024 1024" xml:space="preserve">
<path fill="#FFFFFF" opacity="1.000000" stroke="none" 
	d="
M699.000000,1025.000000 
	C466.000000,1025.000000 233.500000,1025.000000 1.000000,1025.000000 
	C1.000000,683.666687 1.000000,342.333344 1.000000,1.000000 
	C342.333344,1.000000 683.666687,1.000000 1025.000000,1.000000 
	C1025.000000,342.333344 1025.000000,683.666687 1025.000000,1025.000000 
	C916.500000,1025.000000 808.000000,1025.000000 699.000000,1025.000000 
M449.235992,521.950378 
	C449.110352,522.269958 448.984741,522.589478 448.981964,522.971313 
	C448.981964,522.971313 448.884399,522.874084 448.366455,523.111877 
	C448.115570,523.613464 447.864685,524.115112 447.679657,524.744934 
	C447.679657,524.744934 447.554352,524.673767 447.061676,524.969482 
	C446.558533,525.775574 446.055420,526.581726 445.394867,527.527771 
	C445.394867,527.527771 445.295288,527.713379 444.941345,527.916992 
	C444.737915,528.128906 444.655670,528.380432 444.833069,528.840759 
	C444.833069,528.840759 444.653290,528.716370 444.129608,528.992737 
	C443.608795,529.820801 443.088013,530.648804 442.486633,531.587769 
	C442.486633,531.587769 442.391510,531.686584 442.008148,531.927185 
	C441.810944,532.176331 441.723694,532.459412 441.996338,533.000427 
	C441.996338,533.000427 441.742645,532.779846 441.274658,532.948914 
	C441.030334,533.376587 440.786041,533.804260 440.253418,534.445190 
	C440.253418,534.445190 440.160431,534.791504 439.859375,534.963867 
	C439.679962,535.144104 439.617554,535.358398 439.665466,535.679626 
	C439.665466,535.679626 439.592773,535.687378 439.084900,535.971130 
	C438.575348,536.787415 438.065765,537.603699 437.429108,538.549622 
	C437.429108,538.549622 437.331635,538.702820 436.967468,538.934448 
	C436.772888,539.170105 436.692169,539.439819 436.959961,539.977722 
	C436.959961,539.977722 436.707764,539.762512 436.247406,539.934875 
	C436.012787,540.362061 435.778137,540.789307 435.240936,541.440125 
	C435.240936,541.440125 435.140961,541.802734 434.851807,541.951416 
	C434.674744,542.113342 434.610260,542.311829 434.621948,542.630005 
	C434.621948,542.630005 434.538788,542.666260 434.051514,542.974487 
	C433.552155,543.787964 433.052795,544.601379 432.425140,545.545959 
	C432.425140,545.545959 432.327850,545.701538 431.965332,545.934814 
	C431.770691,546.170044 431.690063,546.439392 432.001221,546.997559 
	C432.001221,546.997559 431.722351,546.745300 431.237854,546.955261 
	C431.117737,547.278198 430.997589,547.601196 430.989838,547.976379 
	C430.989838,547.976379 430.899750,547.891235 430.347229,548.166870 
	C429.844238,549.067139 429.341248,549.967468 428.948914,550.669678 
	C440.952118,550.669678 452.665771,550.669678 464.604309,550.525940 
	C464.604309,550.525940 464.711487,550.281555 465.060181,550.056519 
	C465.252441,549.831726 465.328644,549.572693 465.093811,549.069885 
	C465.093811,549.069885 465.317444,549.248657 465.793945,549.042603 
	C466.020874,548.580444 466.247803,548.118286 466.650360,547.491089 
	C466.650360,547.491089 466.736053,547.265869 467.069550,547.026245 
	C467.241943,546.793396 467.308350,546.533508 467.025269,546.018555 
	C467.025269,546.018555 467.283051,546.230347 467.767944,546.017456 
	C468.000458,545.546204 468.232941,545.074951 468.603882,544.459961 
	C468.603882,544.459961 468.695160,544.282410 469.043701,544.032837 
	C469.219116,543.788269 469.289062,543.516541 469.000000,543.000000 
	C469.000000,543.000000 469.254669,543.216858 469.737946,543.011841 
	C469.980652,542.551270 470.223389,542.090698 470.625763,541.477722 
	C470.625763,541.477722 470.717285,541.276917 471.060791,541.043823 
	C471.242310,540.812988 471.314423,540.551880 471.046448,540.030090 
	C471.046448,540.030090 471.296295,540.239624 471.766479,540.053772 
	C472.001495,539.611328 472.236481,539.168884 472.711639,538.533630 
	C472.711639,538.533630 472.791962,538.236328 473.105133,538.018738 
	C473.273193,537.805786 473.335388,537.565430 473.065491,537.050171 
	C473.065491,537.050171 473.315674,537.273560 473.883545,536.983215 
	C474.435089,536.080139 474.986603,535.177002 475.821442,534.202515 
	C475.821442,534.202515 475.987335,533.962036 476.926514,533.973938 
	C489.271759,534.008667 501.617035,534.043396 514.034607,535.001953 
	C514.034607,540.257812 514.034607,545.513611 514.034607,550.968384 
	C525.137390,550.968384 535.561157,550.968384 546.835938,551.027344 
	C547.161377,549.514465 547.767578,548.002197 547.770691,546.488708 
	C547.835266,515.066467 547.831421,483.644135 547.841003,452.221832 
	C547.841370,450.933502 547.841003,449.645172 547.841003,447.880493 
	C533.164795,447.880493 518.917419,447.823608 504.673065,448.000244 
	C503.653687,448.012909 502.655518,449.734406 501.848267,450.915558 
	C501.848267,450.915558 501.613037,450.692810 501.095825,450.964355 
	C500.580780,451.780060 500.065735,452.595764 499.422241,453.543396 
	C499.422241,453.543396 499.324432,453.699402 498.963196,453.917786 
	C498.763367,454.141693 498.677948,454.402985 498.930847,454.952667 
	C498.930847,454.952667 498.682800,454.725494 498.141968,454.993408 
	C497.625214,455.844788 497.108459,456.696136 496.568359,457.636108 
	C496.568359,457.636108 496.480133,457.660828 496.051239,457.921906 
	C495.934845,458.231659 495.818481,458.541412 495.299530,459.050446 
	C495.071259,459.267853 494.945892,459.533752 494.407379,460.105133 
	C494.140198,460.605438 493.873016,461.105713 493.604492,461.684631 
	C493.604492,461.684631 493.526031,461.679688 493.089691,461.903320 
	C492.861786,462.162720 492.755005,462.464935 493.000519,462.988953 
	C493.000519,462.988953 492.776703,462.800079 492.292328,462.988617 
	C492.040863,463.437531 491.789398,463.886475 491.341766,464.499298 
	C491.341766,464.499298 491.249207,464.737579 490.914124,464.942535 
	C490.724762,465.151672 490.651459,465.395660 490.858459,465.869873 
	C490.858459,465.869873 490.656769,465.713501 490.128998,465.977264 
	C489.605499,466.798798 489.081970,467.620331 488.452332,468.564026 
	C488.452332,468.564026 488.355804,468.693939 487.984161,468.928436 
	C487.788147,469.168549 487.703735,469.442963 487.998138,470.001221 
	C487.998138,470.001221 487.732910,469.750305 487.244110,469.949677 
	C487.115845,470.269104 486.987579,470.588531 486.983398,470.972870 
	C486.983398,470.972870 486.883698,470.874481 486.368958,471.104889 
	C486.112427,471.597321 485.855927,472.089752 485.581024,472.665344 
	C485.581024,472.665344 485.497223,472.680420 485.074585,472.913635 
	C484.859314,473.174591 484.758087,473.474091 484.998291,473.988312 
	C484.998291,473.988312 484.779816,473.800751 484.294983,473.984741 
	C484.042236,474.431305 483.789459,474.877838 483.330383,475.492279 
	C483.330383,475.492279 483.237915,475.741669 482.905853,475.936218 
	C482.712738,476.136993 482.639099,476.374786 482.763184,476.776489 
	C482.763184,476.776489 482.632324,476.704895 482.116241,476.969360 
	C481.595795,477.772888 481.075348,478.576416 480.410553,479.516388 
	C480.410553,479.516388 480.308807,479.686890 479.929291,479.949524 
	C479.729736,480.199280 479.623871,480.483856 479.233826,481.019958 
	C479.033661,481.246307 478.922333,481.510101 478.387329,482.054688 
	C478.114349,482.543793 477.841400,483.032928 477.519501,483.620605 
	C477.519501,483.620605 477.426300,483.679138 477.027679,483.906891 
	C476.816467,484.151855 476.719604,484.435852 476.996338,485.000275 
	C476.996338,485.000275 476.741882,484.754333 476.247833,484.947021 
	C476.116241,485.265564 475.984650,485.584137 475.983887,485.969452 
	C475.983887,485.969452 475.876556,485.869232 475.363495,486.111298 
	C475.111115,486.609924 474.858765,487.108551 474.660278,487.725220 
	C474.660278,487.725220 474.544342,487.666901 474.056702,487.950195 
	C473.552124,488.733368 473.047546,489.516510 472.307495,490.475983 
	C472.307495,490.475983 472.214569,490.755066 471.891663,490.945984 
	C471.703522,491.142395 471.633362,491.374451 471.747375,491.759918 
	C471.747375,491.759918 471.626221,491.700165 471.110046,491.984375 
	C470.594543,492.809326 470.079041,493.634308 469.485840,494.571625 
	C469.485840,494.571625 469.388763,494.667755 468.984741,494.932739 
	C468.777863,495.195465 468.668304,495.493896 468.268158,496.040192 
	C468.058594,496.265106 467.941254,496.530762 467.407501,497.078766 
	C467.129364,497.559784 466.851227,498.040802 466.519684,498.620361 
	C466.519684,498.620361 466.426514,498.682678 466.029053,498.917664 
	C465.824280,499.169006 465.731293,499.456512 465.995148,500.002197 
	C465.995148,500.002197 465.746521,499.782990 465.278625,499.951965 
	C465.034454,500.380127 464.790314,500.808319 464.254883,501.445801 
	C464.254883,501.445801 464.160309,501.791840 463.859680,501.961273 
	C463.680206,502.139740 463.617279,502.352631 463.652374,502.674683 
	C463.652374,502.674683 463.577606,502.693146 463.125031,502.910828 
	C463.014313,503.220398 462.903595,503.529968 462.989868,503.978546 
	C462.989868,503.978546 462.808319,503.819763 462.322205,504.012329 
	C462.063782,504.462189 461.805328,504.912048 461.365479,505.512512 
	C461.365479,505.512512 461.266815,505.726654 460.924591,505.932495 
	C460.730286,506.143402 460.653442,506.390778 460.855347,506.866241 
	C460.855347,506.866241 460.656189,506.714447 460.125397,506.992432 
	C459.611450,507.836182 459.097504,508.679932 458.531555,509.620148 
	C458.531555,509.620148 458.439026,509.678802 458.034729,509.906830 
	C457.820709,510.154419 457.723114,510.441589 457.993195,510.996826 
	C457.993195,510.996826 457.750275,510.759613 457.258240,510.957642 
	C457.127563,511.276733 456.996887,511.595825 456.984161,511.971619 
	C456.984161,511.971619 456.891235,511.879486 456.376343,512.119263 
	C456.121399,512.616943 455.866455,513.114624 455.674103,513.739746 
	C455.674103,513.739746 455.550873,513.669189 455.061432,513.949341 
	C454.554626,514.729309 454.047791,515.509277 453.296875,516.470520 
	C453.296875,516.470520 453.205383,516.760437 452.885040,516.947021 
	C452.696503,517.139954 452.627258,517.368896 452.720215,517.733032 
	C452.720215,517.733032 452.618225,517.697571 452.105560,517.977966 
	C451.590057,518.795044 451.074554,519.612061 450.438446,520.555237 
	C450.438446,520.555237 450.340851,520.699890 449.973297,520.929321 
	C449.776764,521.164734 449.693756,521.434937 450.002075,521.992676 
	C450.002075,521.992676 449.720825,521.744934 449.235992,521.950378 
M654.283325,550.493774 
	C654.692688,550.724426 655.101624,551.155518 655.511475,551.156494 
	C668.038147,551.184631 680.565063,551.192749 693.091309,551.110535 
	C693.884277,551.105347 694.672241,550.345947 695.870789,549.401306 
	C707.578125,515.722290 719.285461,482.043274 731.141113,447.937622 
	C718.481506,447.937622 706.339111,448.058472 694.202271,447.853149 
	C691.146362,447.801453 689.910828,448.886169 688.981689,451.618866 
	C684.546326,464.663452 679.904602,477.637726 675.371948,490.649414 
	C668.494202,510.392609 661.645935,530.145996 654.283325,550.493774 
M514.817444,569.947754 
	C515.217346,565.990051 512.068542,567.877380 510.779266,567.871643 
	C476.193146,567.718811 441.606323,567.711121 407.019714,567.757629 
	C405.514252,567.759644 404.009766,568.508362 402.113129,569.478027 
	C372.913452,653.783997 343.713776,738.089966 314.323151,822.947388 
	C316.891846,822.947388 318.543549,822.947083 320.195251,822.947327 
	C353.506927,822.953247 386.819641,822.833984 420.129211,823.100769 
	C425.111298,823.140686 427.229034,821.757019 428.878113,817.001831 
	C455.299988,740.812256 481.950684,664.702148 508.503357,588.557861 
	C510.570587,582.629639 512.296509,576.582520 514.817444,569.947754 
M539.301392,569.533081 
	C509.887543,653.875122 480.473663,738.217224 451.040863,822.613403 
	C451.807343,822.779053 452.131805,822.910522 452.456299,822.910583 
	C505.611359,822.916260 558.766479,822.888611 611.921387,822.974976 
	C614.785339,822.979614 615.409973,821.602173 616.203613,819.336426 
	C638.772583,754.898071 661.414429,690.485229 684.058105,626.072998 
	C689.338440,611.052551 694.668701,596.049561 699.998352,580.975403 
	C705.338745,580.975403 710.331421,580.975281 715.324036,580.975403 
	C750.149902,580.976501 784.975830,580.996948 819.801514,580.917908 
	C821.414246,580.914307 823.946838,580.488281 824.468445,579.457825 
	C826.217896,576.001770 827.249390,572.182190 828.739685,567.983521 
	C825.567932,567.983521 823.245056,567.984192 820.922241,567.983337 
	C793.095093,567.972778 765.267944,567.934387 737.440796,567.959229 
	C710.952026,567.982971 684.463318,568.072815 657.051697,567.977844 
	C619.417358,567.915039 581.782959,567.838318 544.148621,567.842346 
	C542.703613,567.842529 541.258728,568.620789 539.301392,569.533081 
M622.178833,338.727631 
	C612.169434,368.276123 602.160034,397.824615 591.987610,427.854309 
	C594.434692,427.854309 596.391357,427.852814 598.347961,427.854492 
	C648.845276,427.898376 699.342896,427.876556 749.839355,428.104675 
	C754.162842,428.124176 755.755371,426.655701 757.074097,422.792328 
	C777.150757,363.975220 797.392517,305.214386 817.576660,246.433899 
	C820.566956,237.725479 823.459656,228.983521 826.452881,220.092651 
	C825.294983,219.923401 824.810791,219.790771 824.326599,219.790649 
	C771.664673,219.777374 719.002563,219.827682 666.341187,219.657867 
	C662.544617,219.645615 662.015320,221.765289 661.159607,224.281784 
	C648.269470,262.186981 635.375427,300.090881 622.178833,338.727631 
M551.500000,220.067551 
	C545.169922,220.063217 538.798706,220.501587 532.522583,219.917511 
	C527.296204,219.431152 525.512207,221.589417 523.941956,226.191162 
	C502.782806,288.199829 481.409668,350.135498 460.104950,412.094543 
	C458.344604,417.213989 456.696228,422.371948 454.860046,427.922546 
	C456.863281,427.922546 458.185699,427.920044 459.508148,427.922913 
	C492.989594,427.995361 526.473022,427.900146 559.950562,428.298279 
	C565.886780,428.368835 568.382629,426.835022 570.348267,421.004913 
	C588.890381,366.009369 607.843750,311.152496 626.664307,256.250793 
	C630.749146,244.334976 634.777466,232.399750 638.969971,220.067123 
	C609.775208,220.067123 581.137634,220.067123 551.500000,220.067551 
M276.809601,712.265930 
	C263.991791,748.885132 251.173996,785.504395 238.256699,822.407898 
	C240.019943,822.727478 240.662552,822.944702 241.305481,822.945740 
	C256.466125,822.969727 271.627594,822.890198 286.786804,823.042297 
	C289.875336,823.073303 290.634521,821.442383 291.468628,819.042664 
	C303.369293,784.803772 315.348694,750.592285 327.300995,716.371338 
	C342.489441,672.885132 357.682861,629.400696 372.840607,585.903809 
	C374.944000,579.867859 376.855499,573.765076 379.030365,567.163574 
	C361.930695,567.163574 345.623108,567.094238 329.319244,567.310120 
	C328.157440,567.325500 326.438782,569.228516 325.961060,570.596741 
	C309.570557,617.540283 293.298676,664.525269 276.809601,712.265930 
M496.258423,237.781555 
	C498.199890,232.073456 500.141388,226.365356 502.292816,220.039963 
	C485.588959,220.039963 469.942993,220.158020 454.301453,219.949280 
	C450.796875,219.902512 449.383087,221.148773 448.316467,224.317520 
	C438.660126,253.005432 428.848236,281.640991 419.087830,310.293884 
	C409.059692,339.732727 399.031494,369.171539 389.017639,398.615204 
	C385.768158,408.169617 382.563843,417.739349 379.245331,427.579559 
	C380.483917,427.725250 381.280762,427.899963 382.077820,427.900726 
	C397.074249,427.915314 412.072296,427.790131 427.065918,427.995087 
	C430.617188,428.043640 431.460266,426.242493 432.408051,423.481689 
	C453.577301,361.818604 474.820953,300.181091 496.258423,237.781555 
M731.741211,500.157349 
	C725.797485,517.022766 719.853821,533.888184 713.755127,551.193359 
	C724.498901,551.193359 734.646851,551.039368 744.785400,551.280518 
	C748.140991,551.360291 749.216370,549.984863 750.186584,547.072937 
	C756.751648,527.368652 763.515320,507.730438 770.239258,488.079285 
	C770.675354,486.804871 771.314575,485.599945 771.859314,484.362701 
	C772.154053,484.426697 772.448853,484.490723 772.743591,484.554718 
	C775.130615,506.639404 777.517578,528.724060 779.941528,551.150146 
	C796.487671,551.150146 812.795959,551.216614 829.100769,551.011047 
	C830.276062,550.996277 832.034119,549.211060 832.499146,547.889343 
	C843.693787,516.072998 854.752747,484.208862 865.815063,452.346039 
	C866.275146,451.020844 866.529480,449.624207 866.964478,447.930481 
	C856.201843,447.930481 845.877625,447.805847 835.564575,448.088562 
	C834.277466,448.123810 832.402710,450.087799 831.891602,451.541718 
	C824.895447,471.444244 818.092590,491.414703 811.237427,511.366821 
	C810.796326,512.650635 810.316956,513.921387 809.855408,515.198181 
	C809.615601,515.127991 809.375854,515.057861 809.136047,514.987671 
	C807.344238,492.685181 805.552490,470.382690 803.763794,448.119019 
	C785.557678,448.119019 767.923828,448.119019 750.147583,448.119019 
	C744.061035,465.281799 738.010498,482.343201 731.741211,500.157349 
M318.953583,551.712219 
	C328.449554,551.702515 337.946838,551.601746 347.440674,551.739624 
	C350.227875,551.780029 351.469574,550.924438 352.331360,548.151428 
	C354.843811,540.067261 357.905518,532.154785 360.474579,524.086609 
	C361.401886,521.174438 362.883911,520.078796 365.857117,520.306152 
	C368.616272,520.517090 371.404236,520.351074 374.355774,520.351074 
	C375.709259,530.858887 376.995972,540.848328 378.294281,550.927673 
	C392.042816,550.927673 405.471161,550.927673 419.313934,550.927673 
	C416.656860,538.485596 414.065125,526.349548 411.438324,514.049133 
	C412.777222,513.435791 413.954895,512.878784 415.147064,512.354675 
	C416.516907,511.752533 417.918732,511.220612 419.273773,510.587677 
	C433.041016,504.157166 441.423828,493.451019 444.623230,478.630615 
	C447.823608,463.805664 441.870087,453.820282 427.205078,449.960632 
	C423.218933,448.911499 419.023254,448.179932 414.916992,448.147247 
	C395.095306,447.989380 375.270691,448.206696 355.448792,448.059998 
	C352.260498,448.036407 351.212158,449.324463 350.284515,452.015320 
	C343.624847,471.332611 336.803436,490.594086 330.064880,509.884247 
	C325.627533,522.586731 321.209869,535.296448 316.886200,548.037781 
	C316.463104,549.284607 314.114746,551.656494 318.953583,551.712219 
M80.806923,510.265839 
	C76.014420,524.028931 71.221924,537.791992 66.321983,551.863647 
	C86.151115,551.863647 105.311569,552.198608 124.453064,551.740906 
	C136.346558,551.456360 148.016891,548.997131 158.206512,542.360229 
	C180.379715,527.918030 191.200180,506.372772 194.918472,480.990601 
	C197.981171,460.083954 184.171356,451.077209 169.611206,450.339905 
	C147.220657,449.206085 124.730377,450.041687 101.835602,450.041687 
	C95.071297,469.372650 88.049179,489.440399 80.806923,510.265839 
M927.743713,446.095886 
	C924.447754,446.549408 921.108459,446.798950 917.862427,447.487823 
	C883.237488,454.835785 857.300110,487.220856 857.428589,522.848572 
	C857.482178,537.724854 865.054260,548.115479 879.662048,551.340515 
	C898.101685,555.411560 916.343201,553.810608 934.171204,547.326782 
	C938.776245,545.651978 941.724609,543.174255 942.828674,538.222961 
	C943.654785,534.518677 945.296326,530.996155 946.576172,527.393188 
	C950.721497,515.723511 954.867554,504.054047 959.146301,492.010132 
	C945.517090,492.010132 932.526062,491.947174 919.537964,492.113922 
	C918.326233,492.129456 916.465881,493.339691 916.041138,494.435059 
	C913.540771,500.884003 911.376831,507.463379 908.894775,514.586609 
	C914.205261,514.586609 918.961548,514.586609 925.322021,514.586609 
	C922.681458,519.346558 921.487366,524.983459 918.379883,526.388489 
	C911.532104,529.484802 903.555481,529.919312 896.986206,524.865601 
	C890.728394,520.051453 892.808838,513.204834 893.870728,506.807068 
	C893.925293,506.478271 893.956604,506.143707 894.036987,505.821411 
	C899.454285,484.096130 913.888062,472.619598 936.129883,473.152954 
	C944.179443,473.345978 952.194519,474.979980 960.620605,476.004547 
	C963.403625,468.034241 966.446777,459.318970 969.664917,450.102478 
	C964.999146,449.092133 960.841553,447.704529 956.601501,447.373444 
	C947.320984,446.648773 937.998596,446.460052 927.743713,446.095886 
M223.163788,448.971069 
	C222.684006,449.357880 221.938889,449.650177 221.762527,450.145111 
	C213.231689,474.086639 204.234070,497.880005 196.468399,522.068726 
	C192.240112,535.239197 198.614746,546.234863 212.118683,549.962341 
	C242.535477,558.358093 278.383545,551.357239 292.850586,513.204712 
	C297.620575,500.625275 301.747101,487.801880 306.167297,475.089844 
	C309.147888,466.517975 312.127563,457.945862 315.240875,448.990479 
	C304.940857,448.990479 295.282928,448.880005 285.634247,449.128540 
	C284.410828,449.160004 282.621643,450.843719 282.136688,452.149109 
	C278.607819,461.648407 275.436157,471.279663 271.976440,480.805573 
	C267.839478,492.196136 263.779297,503.626129 259.190674,514.836365 
	C256.762878,520.767456 252.781662,525.822815 246.261902,527.951233 
	C241.484894,529.510681 236.594376,529.952209 232.620453,526.182617 
	C228.703079,522.466675 230.054764,517.913818 231.556213,513.582520 
	C234.439758,505.264343 237.437134,496.985687 240.345978,488.676178 
	C244.931747,475.576355 249.483398,462.464569 254.192276,448.947968 
	C243.697632,448.947968 233.875351,448.947968 223.163788,448.971069 
M640.278076,524.912903 
	C630.175110,526.994873 620.064148,529.458801 609.684082,527.122253 
	C601.389771,525.255066 597.874878,520.114746 599.240051,511.765015 
	C600.730469,502.648956 603.737000,494.056335 609.426147,486.603821 
	C616.072632,477.897308 624.673340,472.550476 635.825012,472.927856 
	C645.045776,473.239899 654.235718,474.463440 663.979492,475.331268 
	C666.700684,467.823792 669.780029,459.328156 672.973267,450.518372 
	C652.639893,444.804901 632.610168,443.110413 612.745850,450.125427 
	C584.365479,460.147797 563.169800,489.755035 562.051147,520.027039 
	C561.388794,537.950012 569.282715,548.391907 586.903564,551.640320 
	C603.670593,554.731201 620.380676,553.697144 636.782166,548.869873 
	C637.956177,548.524414 639.578857,547.810059 639.932373,546.868774 
	C642.862549,539.068176 645.542725,531.173706 648.517151,522.683472 
	C645.520264,523.519714 643.310730,524.136169 640.278076,524.912903 
M832.484985,580.983459 
	C839.604858,580.991333 840.146790,580.324646 842.421387,568.566650 
	C838.813721,568.566650 835.251831,568.566650 831.448303,568.566650 
	C830.137390,572.596741 828.846252,576.565857 827.409363,580.983032 
	C829.289734,580.983032 830.431335,580.983032 832.484985,580.983459 
M844.501404,579.844604 
	C847.819763,580.350647 851.138123,580.856689 854.361877,581.348267 
	C855.892212,576.754944 857.131470,573.035095 858.489319,568.959534 
	C854.849426,568.959534 851.731140,568.959534 848.284973,568.959534 
	C847.137939,572.255676 845.948120,575.674622 844.501404,579.844604 
M886.365234,568.901123 
	C884.598572,568.901123 882.831848,568.901123 881.088806,568.901123 
	C879.631531,573.113953 878.344299,576.835083 876.965698,580.820435 
	C880.448425,580.820435 883.560669,580.820435 886.812073,580.820435 
	C888.130737,576.899231 889.411011,573.092102 890.819763,568.902954 
	C889.190674,568.902954 888.204712,568.902954 886.365234,568.901123 
M866.253540,580.964417 
	C873.989990,580.253601 870.625000,572.844788 874.589111,569.103149 
	C870.445801,569.103149 867.503540,569.103149 864.480103,569.103149 
	C863.151489,573.006287 861.886658,576.722168 860.443054,580.963135 
	C862.459045,580.963135 863.915588,580.963135 866.253540,580.964417 
M905.160889,573.825012 
	C905.656677,572.319946 906.152405,570.814941 906.721313,569.087891 
	C903.685669,569.087891 901.061707,569.087891 898.251648,569.087891 
	C896.913391,572.984131 895.608826,576.782349 894.224548,580.812744 
	C897.447571,580.812744 900.075134,580.812744 902.746399,580.812744 
	C903.517883,578.646362 904.239502,576.619995 905.160889,573.825012 
M919.632141,578.345459 
	C920.590332,575.335022 921.548584,572.324524 922.546265,569.190125 
	C913.630371,568.751343 913.630371,568.751343 910.836365,581.851746 
	C914.035034,580.807922 916.664978,579.949707 919.632141,578.345459 
M931.471130,580.990662 
	C932.605469,580.320129 934.332153,579.910706 934.764160,578.930603 
	C936.116394,575.863098 936.980286,572.580322 938.063721,569.288696 
	C930.528870,568.673950 929.962280,569.331177 927.731018,580.857117 
	C928.733948,580.902649 929.706787,580.946777 931.471130,580.990662 
z"/>
<path fill="#043B7A" opacity="1.000000" stroke="none" 
	d="
M657.974548,568.133545 
	C684.463318,568.072815 710.952026,567.982971 737.440796,567.959229 
	C765.267944,567.934387 793.095093,567.972778 820.922241,567.983337 
	C823.245056,567.984192 825.567932,567.983521 828.739685,567.983521 
	C827.249390,572.182190 826.217896,576.001770 824.468445,579.457825 
	C823.946838,580.488281 821.414246,580.914307 819.801514,580.917908 
	C784.975830,580.996948 750.149902,580.976501 715.324036,580.975403 
	C710.331421,580.975281 705.338745,580.975403 699.998352,580.975403 
	C694.668701,596.049561 689.338440,611.052551 684.058105,626.072998 
	C661.414429,690.485229 638.772583,754.898071 616.203613,819.336426 
	C615.409973,821.602173 614.785339,822.979614 611.921387,822.974976 
	C558.766479,822.888611 505.611359,822.916260 452.456299,822.910583 
	C452.131805,822.910522 451.807343,822.779053 451.040863,822.613403 
	C480.473663,738.217224 509.887543,653.875122 540.039795,569.277832 
	C577.925171,569.012573 615.072144,569.015381 652.219116,568.956177 
	C654.138000,568.953125 656.056091,568.419922 657.974548,568.133545 
z"/>
<path fill="#043B7A" opacity="1.000000" stroke="none" 
	d="
M622.330566,338.361328 
	C635.375427,300.090881 648.269470,262.186981 661.159607,224.281784 
	C662.015320,221.765289 662.544617,219.645615 666.341187,219.657867 
	C719.002563,219.827682 771.664673,219.777374 824.326599,219.790649 
	C824.810791,219.790771 825.294983,219.923401 826.452881,220.092651 
	C823.459656,228.983521 820.566956,237.725479 817.576660,246.433899 
	C797.392517,305.214386 777.150757,363.975220 757.074097,422.792328 
	C755.755371,426.655701 754.162842,428.124176 749.839355,428.104675 
	C699.342896,427.876556 648.845276,427.898376 598.347961,427.854492 
	C596.391357,427.852814 594.434692,427.854309 591.987610,427.854309 
	C602.160034,397.824615 612.169434,368.276123 622.330566,338.361328 
z"/>
<path fill="#2BB5D0" opacity="1.000000" stroke="none" 
	d="
M514.181152,570.590698 
	C512.296509,576.582520 510.570587,582.629639 508.503357,588.557861 
	C481.950684,664.702148 455.299988,740.812256 428.878113,817.001831 
	C427.229034,821.757019 425.111298,823.140686 420.129211,823.100769 
	C386.819641,822.833984 353.506927,822.953247 320.195251,822.947327 
	C318.543549,822.947083 316.891846,822.947388 314.323151,822.947388 
	C343.713776,738.089966 372.913452,653.783997 402.816345,569.219482 
	C438.463165,568.973206 473.406860,568.959900 508.350159,569.065430 
	C510.295349,569.071289 512.237549,570.059631 514.181152,570.590698 
z"/>
<path fill="#2CB5D0" opacity="1.000000" stroke="none" 
	d="
M552.000000,220.067337 
	C581.137634,220.067123 609.775208,220.067123 638.969971,220.067123 
	C634.777466,232.399750 630.749146,244.334976 626.664307,256.250793 
	C607.843750,311.152496 588.890381,366.009369 570.348267,421.004913 
	C568.382629,426.835022 565.886780,428.368835 559.950562,428.298279 
	C526.473022,427.900146 492.989594,427.995361 459.508148,427.922913 
	C458.185699,427.920044 456.863281,427.922546 454.860046,427.922546 
	C456.696228,422.371948 458.344604,417.213989 460.104950,412.094543 
	C481.409668,350.135498 502.782806,288.199829 523.941956,226.191162 
	C525.512207,221.589417 527.296204,219.431152 532.522583,219.917511 
	C538.798706,220.501587 545.169922,220.063217 552.000000,220.067337 
z"/>
<path fill="#8BD7E7" opacity="1.000000" stroke="none" 
	d="
M276.909729,711.885132 
	C293.298676,664.525269 309.570557,617.540283 325.961060,570.596741 
	C326.438782,569.228516 328.157440,567.325500 329.319244,567.310120 
	C345.623108,567.094238 361.930695,567.163574 379.030365,567.163574 
	C376.855499,573.765076 374.944000,579.867859 372.840607,585.903809 
	C357.682861,629.400696 342.489441,672.885132 327.300995,716.371338 
	C315.348694,750.592285 303.369293,784.803772 291.468628,819.042664 
	C290.634521,821.442383 289.875336,823.073303 286.786804,823.042297 
	C271.627594,822.890198 256.466125,822.969727 241.305481,822.945740 
	C240.662552,822.944702 240.019943,822.727478 238.256699,822.407898 
	C251.173996,785.504395 263.991791,748.885132 276.909729,711.885132 
z"/>
<path fill="#8BD7E7" opacity="1.000000" stroke="none" 
	d="
M496.154480,238.160126 
	C474.820953,300.181091 453.577301,361.818604 432.408051,423.481689 
	C431.460266,426.242493 430.617188,428.043640 427.065918,427.995087 
	C412.072296,427.790131 397.074249,427.915314 382.077820,427.900726 
	C381.280762,427.899963 380.483917,427.725250 379.245331,427.579559 
	C382.563843,417.739349 385.768158,408.169617 389.017639,398.615204 
	C399.031494,369.171539 409.059692,339.732727 419.087830,310.293884 
	C428.848236,281.640991 438.660126,253.005432 448.316467,224.317520 
	C449.383087,221.148773 450.796875,219.902512 454.301453,219.949280 
	C469.942993,220.158020 485.588959,220.039963 502.292816,220.039963 
	C500.141388,226.365356 498.199890,232.073456 496.154480,238.160126 
z"/>
<path fill="#053C7A" opacity="1.000000" stroke="none" 
	d="
M731.850586,499.780975 
	C738.010498,482.343201 744.061035,465.281799 750.147583,448.119019 
	C767.923828,448.119019 785.557678,448.119019 803.763794,448.119019 
	C805.552490,470.382690 807.344238,492.685181 809.136047,514.987671 
	C809.375854,515.057861 809.615601,515.127991 809.855408,515.198181 
	C810.316956,513.921387 810.796326,512.650635 811.237427,511.366821 
	C818.092590,491.414703 824.895447,471.444244 831.891602,451.541718 
	C832.402710,450.087799 834.277466,448.123810 835.564575,448.088562 
	C845.877625,447.805847 856.201843,447.930481 866.964478,447.930481 
	C866.529480,449.624207 866.275146,451.020844 865.815063,452.346039 
	C854.752747,484.208862 843.693787,516.072998 832.499146,547.889343 
	C832.034119,549.211060 830.276062,550.996277 829.100769,551.011047 
	C812.795959,551.216614 796.487671,551.150146 779.941528,551.150146 
	C777.517578,528.724060 775.130615,506.639404 772.743591,484.554718 
	C772.448853,484.490723 772.154053,484.426697 771.859314,484.362701 
	C771.314575,485.599945 770.675354,486.804871 770.239258,488.079285 
	C763.515320,507.730438 756.751648,527.368652 750.186584,547.072937 
	C749.216370,549.984863 748.140991,551.360291 744.785400,551.280518 
	C734.646851,551.039368 724.498901,551.193359 713.755127,551.193359 
	C719.853821,533.888184 725.797485,517.022766 731.850586,499.780975 
z"/>
<path fill="#053C7B" opacity="1.000000" stroke="none" 
	d="
M318.507080,551.712524 
	C314.114746,551.656494 316.463104,549.284607 316.886200,548.037781 
	C321.209869,535.296448 325.627533,522.586731 330.064880,509.884247 
	C336.803436,490.594086 343.624847,471.332611 350.284515,452.015320 
	C351.212158,449.324463 352.260498,448.036407 355.448792,448.059998 
	C375.270691,448.206696 395.095306,447.989380 414.916992,448.147247 
	C419.023254,448.179932 423.218933,448.911499 427.205078,449.960632 
	C441.870087,453.820282 447.823608,463.805664 444.623230,478.630615 
	C441.423828,493.451019 433.041016,504.157166 419.273773,510.587677 
	C417.918732,511.220612 416.516907,511.752533 415.147064,512.354675 
	C413.954895,512.878784 412.777222,513.435791 411.438324,514.049133 
	C414.065125,526.349548 416.656860,538.485596 419.313934,550.927673 
	C405.471161,550.927673 392.042816,550.927673 378.294281,550.927673 
	C376.995972,540.848328 375.709259,530.858887 374.355774,520.351074 
	C371.404236,520.351074 368.616272,520.517090 365.857117,520.306152 
	C362.883911,520.078796 361.401886,521.174438 360.474579,524.086609 
	C357.905518,532.154785 354.843811,540.067261 352.331360,548.151428 
	C351.469574,550.924438 350.227875,551.780029 347.440674,551.739624 
	C337.946838,551.601746 328.449554,551.702515 318.507080,551.712524 
M374.042053,485.521606 
	C372.712463,489.552582 371.382874,493.583557 369.958862,497.900726 
	C376.769989,497.900726 383.090393,498.068512 389.398163,497.858093 
	C397.225281,497.596985 403.469269,492.807281 405.911621,485.601074 
	C408.612213,477.632874 405.342316,472.938446 396.917908,472.708801 
	C395.255615,472.663483 393.591736,472.670715 391.928558,472.661499 
	C378.677032,472.588104 378.677032,472.588684 374.042053,485.521606 
z"/>
<path fill="#053C7A" opacity="1.000000" stroke="none" 
	d="
M80.916992,509.886963 
	C88.049179,489.440399 95.071297,469.372650 101.835602,450.041687 
	C124.730377,450.041687 147.220657,449.206085 169.611206,450.339905 
	C184.171356,451.077209 197.981171,460.083954 194.918472,480.990601 
	C191.200180,506.372772 180.379715,527.918030 158.206512,542.360229 
	C148.016891,548.997131 136.346558,551.456360 124.453064,551.740906 
	C105.311569,552.198608 86.151115,551.863647 66.321983,551.863647 
	C71.221924,537.791992 76.014420,524.028931 80.916992,509.886963 
M111.961754,515.470886 
	C110.586937,519.490173 109.212128,523.509460 107.734673,527.828857 
	C113.989006,527.828857 119.651047,528.101074 125.277023,527.766724 
	C134.316391,527.229431 142.037094,523.699585 147.586746,516.297363 
	C153.691818,508.154388 157.179672,498.840515 158.684158,488.874908 
	C159.996231,480.183716 156.171631,475.205170 147.348099,474.021881 
	C142.269135,473.340759 137.056961,473.714630 131.939087,473.242004 
	C128.029694,472.880951 126.155930,474.058563 124.880676,478.043457 
	C120.939133,490.359741 116.442986,502.498566 111.961754,515.470886 
z"/>
<path fill="#063C7B" opacity="1.000000" stroke="none" 
	d="
M928.218506,446.074158 
	C937.998596,446.460052 947.320984,446.648773 956.601501,447.373444 
	C960.841553,447.704529 964.999146,449.092133 969.664917,450.102478 
	C966.446777,459.318970 963.403625,468.034241 960.620605,476.004547 
	C952.194519,474.979980 944.179443,473.345978 936.129883,473.152954 
	C913.888062,472.619598 899.454285,484.096130 894.036987,505.821411 
	C893.956604,506.143707 893.925293,506.478271 893.870728,506.807068 
	C892.808838,513.204834 890.728394,520.051453 896.986206,524.865601 
	C903.555481,529.919312 911.532104,529.484802 918.379883,526.388489 
	C921.487366,524.983459 922.681458,519.346558 925.322021,514.586609 
	C918.961548,514.586609 914.205261,514.586609 908.894775,514.586609 
	C911.376831,507.463379 913.540771,500.884003 916.041138,494.435059 
	C916.465881,493.339691 918.326233,492.129456 919.537964,492.113922 
	C932.526062,491.947174 945.517090,492.010132 959.146301,492.010132 
	C954.867554,504.054047 950.721497,515.723511 946.576172,527.393188 
	C945.296326,530.996155 943.654785,534.518677 942.828674,538.222961 
	C941.724609,543.174255 938.776245,545.651978 934.171204,547.326782 
	C916.343201,553.810608 898.101685,555.411560 879.662048,551.340515 
	C865.054260,548.115479 857.482178,537.724854 857.428589,522.848572 
	C857.300110,487.220856 883.237488,454.835785 917.862427,447.487823 
	C921.108459,446.798950 924.447754,446.549408 928.218506,446.074158 
z"/>
<path fill="#063C7A" opacity="1.000000" stroke="none" 
	d="
M223.608429,448.959534 
	C233.875351,448.947968 243.697632,448.947968 254.192276,448.947968 
	C249.483398,462.464569 244.931747,475.576355 240.345978,488.676178 
	C237.437134,496.985687 234.439758,505.264343 231.556213,513.582520 
	C230.054764,517.913818 228.703079,522.466675 232.620453,526.182617 
	C236.594376,529.952209 241.484894,529.510681 246.261902,527.951233 
	C252.781662,525.822815 256.762878,520.767456 259.190674,514.836365 
	C263.779297,503.626129 267.839478,492.196136 271.976440,480.805573 
	C275.436157,471.279663 278.607819,461.648407 282.136688,452.149109 
	C282.621643,450.843719 284.410828,449.160004 285.634247,449.128540 
	C295.282928,448.880005 304.940857,448.990479 315.240875,448.990479 
	C312.127563,457.945862 309.147888,466.517975 306.167297,475.089844 
	C301.747101,487.801880 297.620575,500.625275 292.850586,513.204712 
	C278.383545,551.357239 242.535477,558.358093 212.118683,549.962341 
	C198.614746,546.234863 192.240112,535.239197 196.468399,522.068726 
	C204.234070,497.880005 213.231689,474.086639 221.762527,450.145111 
	C221.938889,449.650177 222.684006,449.357880 223.608429,448.959534 
z"/>
<path fill="#053C7A" opacity="1.000000" stroke="none" 
	d="
M545.984985,550.968384 
	C535.561157,550.968384 525.137390,550.968384 514.034607,550.968384 
	C514.034607,545.513611 514.034607,540.257812 513.921814,534.144409 
	C513.136536,532.897400 512.466248,532.173096 511.791229,532.168701 
	C500.688202,532.096130 489.584137,532.074341 478.481903,532.191711 
	C477.644226,532.200500 476.818542,533.345276 475.987305,533.962036 
	C475.987335,533.962036 475.821442,534.202515 475.319885,534.276855 
	C474.317413,535.325256 473.816528,536.299438 473.315674,537.273560 
	C473.315674,537.273560 473.065491,537.050171 472.944855,537.221130 
	C472.527313,537.662415 472.516571,537.943848 472.791962,538.236328 
	C472.791962,538.236328 472.711639,538.533630 472.287109,538.573853 
	C471.673798,539.155884 471.485046,539.697754 471.296326,540.239624 
	C471.296295,540.239624 471.046448,540.030090 470.922638,540.208496 
	C470.498932,540.658447 470.471771,540.955078 470.717285,541.276917 
	C470.717285,541.276917 470.625763,541.477722 470.234741,541.524414 
	C469.647369,542.119690 469.451019,542.668274 469.254669,543.216858 
	C469.254669,543.216858 469.000000,543.000000 468.889862,543.187866 
	C468.488037,543.653259 468.459869,543.955505 468.695160,544.282410 
	C468.695160,544.282410 468.603882,544.459961 468.221649,544.512451 
	C467.653961,545.120056 467.468506,545.675171 467.283051,546.230347 
	C467.283051,546.230347 467.025269,546.018555 466.910828,546.199951 
	C466.503540,546.657471 466.483429,546.952271 466.736053,547.265869 
	C466.736053,547.265869 466.650360,547.491089 466.250732,547.539001 
	C465.673218,548.140808 465.495331,548.694763 465.317444,549.248657 
	C465.317444,549.248657 465.093811,549.069885 464.948273,549.229187 
	C464.494659,549.657715 464.464233,549.955383 464.711487,550.281555 
	C464.711487,550.281555 464.604309,550.525940 464.016113,550.443481 
	C454.156067,550.275635 444.881042,550.291809 435.615265,550.007324 
	C434.023285,549.958374 432.470612,548.629089 430.899750,547.891235 
	C430.899750,547.891235 430.989838,547.976379 431.172272,547.834900 
	C431.477264,547.377380 431.599792,547.061340 431.722351,546.745300 
	C431.722351,546.745300 432.001221,546.997559 432.106293,546.805664 
	C432.250183,546.309631 432.289001,546.005615 432.327850,545.701538 
	C432.327850,545.701538 432.425140,545.545959 432.838318,545.518066 
	C433.680573,544.548889 434.109680,543.607605 434.538788,542.666260 
	C434.538788,542.666260 434.621948,542.630005 434.865784,542.596375 
	C435.109619,542.562744 435.360626,542.192688 435.360626,542.192688 
	C435.360626,542.192688 435.140961,541.802734 435.140961,541.802734 
	C435.140961,541.802734 435.240936,541.440125 435.689392,541.397461 
	C436.327789,540.823975 436.517792,540.293274 436.707764,539.762512 
	C436.707764,539.762512 436.959961,539.977722 437.085388,539.794800 
	C437.251068,539.308838 437.291351,539.005798 437.331604,538.702820 
	C437.331635,538.702820 437.429108,538.549622 437.840210,538.520691 
	C438.698456,537.556946 439.145630,536.622192 439.592773,535.687378 
	C439.592773,535.687378 439.665466,535.679626 439.898682,535.630798 
	C440.445435,535.329651 440.454926,535.066162 440.160431,534.791504 
	C440.160431,534.791504 440.253418,534.445190 440.695465,534.405945 
	C441.339203,533.837769 441.540924,533.308777 441.742645,532.779846 
	C441.742645,532.779846 441.996338,533.000427 442.115753,532.810181 
	C442.287292,532.308777 442.339417,531.997681 442.391510,531.686584 
	C442.391510,531.686584 442.486633,531.587769 442.874268,531.552429 
	C443.725677,530.583496 444.189484,529.649963 444.653290,528.716370 
	C444.653290,528.716370 444.833069,528.840759 445.006226,528.714661 
	C445.496124,528.333801 445.534760,528.042114 445.295288,527.713379 
	C445.295288,527.713379 445.394867,527.527771 445.820740,527.501953 
	C446.682556,526.541992 447.118439,525.607849 447.554352,524.673767 
	C447.554352,524.673767 447.679657,524.744934 447.955750,524.636353 
	C448.449371,523.976562 448.666901,523.425293 448.884399,522.874084 
	C448.884399,522.874084 448.981964,522.971313 449.162292,522.830933 
	C449.468719,522.375305 449.594788,522.060120 449.720825,521.744934 
	C449.720825,521.744934 450.002075,521.992676 450.106384,521.801025 
	C450.254089,521.306213 450.297485,521.003052 450.340851,520.699890 
	C450.340851,520.699890 450.438446,520.555237 450.846008,520.525513 
	C451.708466,519.562988 452.163330,518.630310 452.618225,517.697571 
	C452.618225,517.697571 452.720215,517.733032 452.934265,517.659851 
	C453.462677,517.331909 453.481689,517.056458 453.205383,516.760437 
	C453.205383,516.760437 453.296875,516.470520 453.760315,516.454712 
	C454.666107,515.515686 455.108490,514.592407 455.550873,513.669189 
	C455.550873,513.669189 455.674103,513.739746 455.952515,513.634460 
	C456.451019,512.979248 456.671112,512.429382 456.891235,511.879456 
	C456.891235,511.879486 456.984161,511.971619 457.166504,511.834106 
	C457.482666,511.384247 457.616455,511.071930 457.750244,510.759613 
	C457.750275,510.759613 457.993195,510.996826 458.115845,510.807556 
	C458.305328,510.305115 458.372192,509.991943 458.439026,509.678802 
	C458.439026,509.678802 458.531555,509.620148 458.905640,509.576691 
	C459.738556,508.593628 460.197357,507.654053 460.656189,506.714447 
	C460.656189,506.714447 460.855347,506.866241 461.015320,506.730103 
	C461.487305,506.334778 461.517822,506.045654 461.266815,505.726654 
	C461.266815,505.726654 461.365479,505.512512 461.762817,505.470306 
	C462.376190,504.891968 462.592255,504.355865 462.808289,503.819763 
	C462.808319,503.819763 462.989868,503.978546 463.136261,503.812256 
	C463.380981,503.328369 463.479309,503.010773 463.577606,502.693146 
	C463.577606,502.693146 463.652374,502.674683 463.891571,502.627441 
	C464.130768,502.580200 464.374939,502.194824 464.374939,502.194824 
	C464.374939,502.194824 464.160309,501.791840 464.160309,501.791840 
	C464.160309,501.791840 464.254883,501.445801 464.697845,501.407227 
	C465.342712,500.840088 465.544617,500.311554 465.746521,499.782990 
	C465.746521,499.782990 465.995148,500.002197 466.118103,499.811371 
	C466.302887,499.307922 466.364685,498.995300 466.426514,498.682678 
	C466.426514,498.682678 466.519684,498.620361 466.862640,498.556152 
	C467.442474,497.940369 467.679321,497.388763 467.916168,496.837128 
	C467.941254,496.530762 468.058594,496.265106 468.721741,495.850403 
	C469.246460,495.329681 469.317596,494.998718 469.388763,494.667755 
	C469.388763,494.667755 469.485840,494.571625 469.872833,494.540619 
	C470.715302,493.573120 471.170746,492.636627 471.626221,491.700165 
	C471.626221,491.700165 471.747375,491.759918 471.950134,491.673706 
	C472.465393,491.331879 472.485931,491.054413 472.214569,490.755066 
	C472.214569,490.755066 472.307495,490.475983 472.767578,490.457947 
	C473.666534,489.515594 474.105438,488.591248 474.544342,487.666901 
	C474.544342,487.666901 474.660278,487.725220 474.943695,487.625671 
	C475.443573,486.973816 475.660034,486.421509 475.876526,485.869202 
	C475.876556,485.869232 475.983887,485.969452 476.160126,485.828491 
	C476.471558,485.376465 476.606720,485.065399 476.741882,484.754333 
	C476.741882,484.754333 476.996338,485.000275 477.115479,484.808075 
	C477.298553,484.303619 477.362427,483.991394 477.426300,483.679138 
	C477.426300,483.679138 477.519501,483.620605 477.862457,483.554749 
	C478.436890,482.929749 478.668396,482.370575 478.899902,481.811401 
	C478.922333,481.510101 479.033661,481.246307 479.682739,480.840820 
	C480.190704,480.336731 480.249756,480.011810 480.308838,479.686890 
	C480.308807,479.686890 480.410553,479.516388 480.826813,479.496582 
	C481.706146,478.552826 482.169220,477.628876 482.632324,476.704895 
	C482.632324,476.704895 482.763184,476.776489 482.962341,476.682404 
	C483.475494,476.332367 483.500977,476.050140 483.237915,475.741669 
	C483.237915,475.741669 483.330383,475.492279 483.739319,475.451691 
	C484.358795,474.874329 484.569305,474.337555 484.779846,473.800751 
	C484.779816,473.800751 484.998291,473.988312 485.131409,473.811340 
	C485.342102,473.316376 485.419678,472.998383 485.497223,472.680420 
	C485.497223,472.680420 485.581024,472.665344 485.900085,472.591370 
	C486.440674,471.969727 486.662170,471.422089 486.883667,470.874481 
	C486.883698,470.874481 486.983398,470.972870 487.162872,470.831421 
	C487.472534,470.376740 487.602722,470.063538 487.732910,469.750305 
	C487.732910,469.750305 487.998138,470.001221 488.109497,469.808044 
	C488.265839,469.307922 488.310822,469.000916 488.355804,468.693939 
	C488.355804,468.693939 488.452332,468.564026 488.851868,468.535217 
	C489.719879,467.575439 490.188324,466.644470 490.656769,465.713501 
	C490.656769,465.713501 490.858459,465.869873 491.015259,465.733002 
	C491.481903,465.335693 491.507629,465.049500 491.249207,464.737579 
	C491.249207,464.737579 491.341766,464.499298 491.746674,464.457642 
	C492.359955,463.877350 492.568329,463.338715 492.776672,462.800079 
	C492.776703,462.800079 493.000519,462.988953 493.132996,462.811279 
	C493.352325,462.315613 493.439178,461.997650 493.526031,461.679688 
	C493.526031,461.679688 493.604492,461.684631 493.919556,461.603455 
	C494.464264,460.964233 494.693878,460.406189 494.923462,459.848175 
	C494.945892,459.533752 495.071259,459.267853 495.759949,458.857483 
	C496.306976,458.329956 496.393555,457.995392 496.480103,457.660828 
	C496.480133,457.660828 496.568359,457.636108 496.927002,457.589844 
	C497.751343,456.604187 498.217072,455.664825 498.682800,454.725494 
	C498.682800,454.725494 498.930847,454.952667 499.064941,454.776550 
	C499.514282,454.338318 499.556091,454.037964 499.324432,453.699402 
	C499.324432,453.699402 499.422241,453.543396 499.833435,453.518677 
	C500.700745,452.560211 501.156891,451.626526 501.613037,450.692810 
	C501.613037,450.692810 501.848267,450.915558 502.139374,450.716827 
	C504.124451,449.981781 505.813141,449.000946 507.513214,448.980865 
	C518.981506,448.845642 530.453552,449.009796 541.921448,448.856628 
	C545.250732,448.812134 546.168030,450.050232 546.155884,453.229095 
	C546.031494,485.808624 546.024658,518.388550 545.984985,550.968384 
M497.971985,501.440552 
	C495.953613,504.402985 493.935211,507.365417 491.598969,510.794373 
	C499.446442,510.794373 506.598267,510.794373 513.736450,510.794373 
	C513.736450,500.332184 513.736450,490.174316 513.736450,478.882965 
	C508.182129,486.803375 503.264465,493.815887 497.971985,501.440552 
z"/>
<path fill="#053C7A" opacity="1.000000" stroke="none" 
	d="
M640.689636,524.832764 
	C643.310730,524.136169 645.520264,523.519714 648.517151,522.683472 
	C645.542725,531.173706 642.862549,539.068176 639.932373,546.868774 
	C639.578857,547.810059 637.956177,548.524414 636.782166,548.869873 
	C620.380676,553.697144 603.670593,554.731201 586.903564,551.640320 
	C569.282715,548.391907 561.388794,537.950012 562.051147,520.027039 
	C563.169800,489.755035 584.365479,460.147797 612.745850,450.125427 
	C632.610168,443.110413 652.639893,444.804901 672.973267,450.518372 
	C669.780029,459.328156 666.700684,467.823792 663.979492,475.331268 
	C654.235718,474.463440 645.045776,473.239899 635.825012,472.927856 
	C624.673340,472.550476 616.072632,477.897308 609.426147,486.603821 
	C603.737000,494.056335 600.730469,502.648956 599.240051,511.765015 
	C597.874878,520.114746 601.389771,525.255066 609.684082,527.122253 
	C620.064148,529.458801 630.175110,526.994873 640.689636,524.832764 
z"/>
<path fill="#053C7A" opacity="1.000000" stroke="none" 
	d="
M654.785156,549.895142 
	C661.645935,530.145996 668.494202,510.392609 675.371948,490.649414 
	C679.904602,477.637726 684.546326,464.663452 688.981689,451.618866 
	C689.910828,448.886169 691.146362,447.801453 694.202271,447.853149 
	C706.339111,448.058472 718.481506,447.937622 731.141113,447.937622 
	C719.285461,482.043274 707.578125,515.722290 695.159058,549.681335 
	C681.226624,549.939270 668.005859,549.917175 654.785156,549.895142 
z"/>
<path fill="#33558A" opacity="1.000000" stroke="none" 
	d="
M546.410522,550.997864 
	C546.024658,518.388550 546.031494,485.808624 546.155884,453.229095 
	C546.168030,450.050232 545.250732,448.812134 541.921448,448.856628 
	C530.453552,449.009796 518.981506,448.845642 507.513214,448.980865 
	C505.813141,449.000946 504.124451,449.981781 502.039001,450.589722 
	C502.655518,449.734406 503.653687,448.012909 504.673065,448.000244 
	C518.917419,447.823608 533.164795,447.880493 547.841003,447.880493 
	C547.841003,449.645172 547.841370,450.933502 547.841003,452.221832 
	C547.831421,483.644135 547.835266,515.066467 547.770691,546.488708 
	C547.767578,548.002197 547.161377,549.514465 546.410522,550.997864 
z"/>
<path fill="#0D3D7A" opacity="1.000000" stroke="none" 
	d="
M832.028931,580.983276 
	C830.431335,580.983032 829.289734,580.983032 827.409363,580.983032 
	C828.846252,576.565857 830.137390,572.596741 831.448303,568.566650 
	C835.251831,568.566650 838.813721,568.566650 842.421387,568.566650 
	C840.146790,580.324646 839.604858,580.991333 832.028931,580.983276 
z"/>
<path fill="#0D3D7A" opacity="1.000000" stroke="none" 
	d="
M844.629883,579.469116 
	C845.948120,575.674622 847.137939,572.255676 848.284973,568.959534 
	C851.731140,568.959534 854.849426,568.959534 858.489319,568.959534 
	C857.131470,573.035095 855.892212,576.754944 854.361877,581.348267 
	C851.138123,580.856689 847.819763,580.350647 844.629883,579.469116 
z"/>
<path fill="#0D3D7A" opacity="1.000000" stroke="none" 
	d="
M886.791992,568.902039 
	C888.204712,568.902954 889.190674,568.902954 890.819763,568.902954 
	C889.411011,573.092102 888.130737,576.899231 886.812073,580.820435 
	C883.560669,580.820435 880.448425,580.820435 876.965698,580.820435 
	C878.344299,576.835083 879.631531,573.113953 881.088806,568.901123 
	C882.831848,568.901123 884.598572,568.901123 886.791992,568.902039 
z"/>
<path fill="#01276B" opacity="1.000000" stroke="none" 
	d="
M657.513123,568.055664 
	C656.056091,568.419922 654.138000,568.953125 652.219116,568.956177 
	C615.072144,569.015381 577.925171,569.012573 540.295959,569.029541 
	C541.258728,568.620789 542.703613,567.842529 544.148621,567.842346 
	C581.782959,567.838318 619.417358,567.915039 657.513123,568.055664 
z"/>
<path fill="#0D3D7A" opacity="1.000000" stroke="none" 
	d="
M865.812805,580.963745 
	C863.915588,580.963135 862.459045,580.963135 860.443054,580.963135 
	C861.886658,576.722168 863.151489,573.006287 864.480103,569.103149 
	C867.503540,569.103149 870.445801,569.103149 874.589111,569.103149 
	C870.625000,572.844788 873.989990,580.253601 865.812805,580.963745 
z"/>
<path fill="#13AAC8" opacity="1.000000" stroke="none" 
	d="
M514.499268,570.269226 
	C512.237549,570.059631 510.295349,569.071289 508.350159,569.065430 
	C473.406860,568.959900 438.463165,568.973206 403.012207,568.935120 
	C404.009766,568.508362 405.514252,567.759644 407.019714,567.757629 
	C441.606323,567.711121 476.193146,567.718811 510.779266,567.871643 
	C512.068542,567.877380 515.217346,565.990051 514.499268,570.269226 
z"/>
<path fill="#0D3D7A" opacity="1.000000" stroke="none" 
	d="
M905.061035,574.209351 
	C904.239502,576.619995 903.517883,578.646362 902.746399,580.812744 
	C900.075134,580.812744 897.447571,580.812744 894.224548,580.812744 
	C895.608826,576.782349 896.913391,572.984131 898.251648,569.087891 
	C901.061707,569.087891 903.685669,569.087891 906.721313,569.087891 
	C906.152405,570.814941 905.656677,572.319946 905.061035,574.209351 
z"/>
<path fill="#0D3D7A" opacity="1.000000" stroke="none" 
	d="
M919.463501,578.718506 
	C916.664978,579.949707 914.035034,580.807922 910.836365,581.851746 
	C913.630371,568.751343 913.630371,568.751343 922.546265,569.190125 
	C921.548584,572.324524 920.590332,575.335022 919.463501,578.718506 
z"/>
<path fill="#0D3D7A" opacity="1.000000" stroke="none" 
	d="
M931.075439,580.990784 
	C929.706787,580.946777 928.733948,580.902649 927.731018,580.857117 
	C929.962280,569.331177 930.528870,568.673950 938.063721,569.288696 
	C936.980286,572.580322 936.116394,575.863098 934.764160,578.930603 
	C934.332153,579.910706 932.605469,580.320129 931.075439,580.990784 
z"/>
<path fill="#33558A" opacity="1.000000" stroke="none" 
	d="
M476.456909,533.967957 
	C476.818542,533.345276 477.644226,532.200500 478.481903,532.191711 
	C489.584137,532.074341 500.688202,532.096130 511.791229,532.168701 
	C512.466248,532.173096 513.136536,532.897400 513.885620,533.682495 
	C501.617035,534.043396 489.271759,534.008667 476.456909,533.967957 
z"/>
<path fill="#33558A" opacity="1.000000" stroke="none" 
	d="
M430.623474,548.029053 
	C432.470612,548.629089 434.023285,549.958374 435.615265,550.007324 
	C444.881042,550.291809 454.156067,550.275635 463.903687,550.515381 
	C452.665771,550.669678 440.952118,550.669678 428.948914,550.669678 
	C429.341248,549.967468 429.844238,549.067139 430.623474,548.029053 
z"/>
<path fill="#01276B" opacity="1.000000" stroke="none" 
	d="
M654.534241,550.194458 
	C668.005859,549.917175 681.226624,549.939270 694.954956,549.949341 
	C694.672241,550.345947 693.884277,551.105347 693.091309,551.110535 
	C680.565063,551.192749 668.038147,551.184631 655.511475,551.156494 
	C655.101624,551.155518 654.692688,550.724426 654.534241,550.194458 
z"/>
<path fill="#33558A" opacity="1.000000" stroke="none" 
	d="
M501.354431,450.828583 
	C501.156891,451.626526 500.700745,452.560211 499.897644,453.452698 
	C500.065735,452.595764 500.580780,451.780060 501.354431,450.828583 
z"/>
<path fill="#33558A" opacity="1.000000" stroke="none" 
	d="
M482.374268,476.837128 
	C482.169220,477.628876 481.706146,478.552826 480.898987,479.428406 
	C481.075348,478.576416 481.595795,477.772888 482.374268,476.837128 
z"/>
<path fill="#33558A" opacity="1.000000" stroke="none" 
	d="
M498.412354,454.859436 
	C498.217072,455.664825 497.751343,456.604187 496.938660,457.545532 
	C497.108459,456.696136 497.625214,455.844788 498.412354,454.859436 
z"/>
<path fill="#33558A" opacity="1.000000" stroke="none" 
	d="
M490.392883,465.845398 
	C490.188324,466.644470 489.719879,467.575439 488.904907,468.474121 
	C489.081970,467.620331 489.605499,466.798798 490.392883,465.845398 
z"/>
<path fill="#33558A" opacity="1.000000" stroke="none" 
	d="
M434.295166,542.820374 
	C434.109680,543.607605 433.680573,544.548889 432.902466,545.452515 
	C433.052795,544.601379 433.552155,543.787964 434.295166,542.820374 
z"/>
<path fill="#33558A" opacity="1.000000" stroke="none" 
	d="
M439.338867,535.829224 
	C439.145630,536.622192 438.698456,537.556946 437.903748,538.455872 
	C438.065765,537.603699 438.575348,536.787415 439.338867,535.829224 
z"/>
<path fill="#33558A" opacity="1.000000" stroke="none" 
	d="
M473.599609,537.128418 
	C473.816528,536.299438 474.317413,535.325256 475.178223,534.312500 
	C474.986603,535.177002 474.435089,536.080139 473.599609,537.128418 
z"/>
<path fill="#33558A" opacity="1.000000" stroke="none" 
	d="
M444.391449,528.854553 
	C444.189484,529.649963 443.725677,530.583496 442.914551,531.496948 
	C443.088013,530.648804 443.608795,529.820801 444.391449,528.854553 
z"/>
<path fill="#33558A" opacity="1.000000" stroke="none" 
	d="
M447.308014,524.821655 
	C447.118439,525.607849 446.682556,526.541992 445.899475,527.431946 
	C446.055420,526.581726 446.558533,525.775574 447.308014,524.821655 
z"/>
<path fill="#33558A" opacity="1.000000" stroke="none" 
	d="
M452.361877,517.837769 
	C452.163330,518.630310 451.708466,519.562988 450.906311,520.462402 
	C451.074554,519.612061 451.590057,518.795044 452.361877,517.837769 
z"/>
<path fill="#33558A" opacity="1.000000" stroke="none" 
	d="
M455.306152,513.809265 
	C455.108490,514.592407 454.666107,515.515686 453.882324,516.364075 
	C454.047791,515.509277 454.554626,514.729309 455.306152,513.809265 
z"/>
<path fill="#33558A" opacity="1.000000" stroke="none" 
	d="
M460.390808,506.853455 
	C460.197357,507.654053 459.738556,508.593628 458.931641,509.528473 
	C459.097504,508.679932 459.611450,507.836182 460.390808,506.853455 
z"/>
<path fill="#33558A" opacity="1.000000" stroke="none" 
	d="
M474.300537,487.808533 
	C474.105438,488.591248 473.666534,489.515594 472.885284,490.369812 
	C473.047546,489.516510 473.552124,488.733368 474.300537,487.808533 
z"/>
<path fill="#33558A" opacity="1.000000" stroke="none" 
	d="
M471.368103,491.842285 
	C471.170746,492.636627 470.715302,493.573120 469.911682,494.484436 
	C470.079041,493.634308 470.594543,492.809326 471.368103,491.842285 
z"/>
<path fill="#33558A" opacity="1.000000" stroke="none" 
	d="
M484.537415,473.892761 
	C484.569305,474.337555 484.358795,474.874329 483.842468,475.367737 
	C483.789459,474.877838 484.042236,474.431305 484.537415,473.892761 
z"/>
<path fill="#33558A" opacity="1.000000" stroke="none" 
	d="
M467.525513,546.123901 
	C467.468506,545.675171 467.653961,545.120056 468.152435,544.584351 
	C468.232941,545.074951 468.000458,545.546204 467.525513,546.123901 
z"/>
<path fill="#33558A" opacity="1.000000" stroke="none" 
	d="
M475.619995,485.990234 
	C475.660034,486.421509 475.443573,486.973816 474.916748,487.566650 
	C474.858765,487.108551 475.111115,486.609924 475.619995,485.990234 
z"/>
<path fill="#33558A" opacity="1.000000" stroke="none" 
	d="
M469.496307,543.114380 
	C469.451019,542.668274 469.647369,542.119690 470.154907,541.600586 
	C470.223389,542.090698 469.980652,542.551270 469.496307,543.114380 
z"/>
<path fill="#33558A" opacity="1.000000" stroke="none" 
	d="
M436.477600,539.848694 
	C436.517792,540.293274 436.327789,540.823975 435.840637,541.285645 
	C435.778137,540.789307 436.012787,540.362061 436.477600,539.848694 
z"/>
<path fill="#33558A" opacity="1.000000" stroke="none" 
	d="
M465.555695,549.145630 
	C465.495331,548.694763 465.673218,548.140808 466.162903,547.621521 
	C466.247803,548.118286 466.020874,548.580444 465.555695,549.145630 
z"/>
<path fill="#33558A" opacity="1.000000" stroke="none" 
	d="
M471.531403,540.146729 
	C471.485046,539.697754 471.673798,539.155884 472.167023,538.670227 
	C472.236481,539.168884 472.001495,539.611328 471.531403,540.146729 
z"/>
<path fill="#33558A" opacity="1.000000" stroke="none" 
	d="
M441.508667,532.864380 
	C441.540924,533.308777 441.339203,533.837769 440.839600,534.299316 
	C440.786041,533.804260 441.030334,533.376587 441.508667,532.864380 
z"/>
<path fill="#33558A" opacity="1.000000" stroke="none" 
	d="
M486.626312,470.989685 
	C486.662170,471.422089 486.440674,471.969727 485.909302,472.549744 
	C485.855927,472.089752 486.112427,471.597321 486.626312,470.989685 
z"/>
<path fill="#33558A" opacity="1.000000" stroke="none" 
	d="
M448.625427,522.992981 
	C448.666901,523.425293 448.449371,523.976562 447.922821,524.572266 
	C447.864685,524.115112 448.115570,523.613464 448.625427,522.992981 
z"/>
<path fill="#33558A" opacity="1.000000" stroke="none" 
	d="
M492.534485,462.894348 
	C492.568329,463.338715 492.359955,463.877350 491.844757,464.375732 
	C491.789398,463.886475 492.040863,463.437531 492.534485,462.894348 
z"/>
<path fill="#33558A" opacity="1.000000" stroke="none" 
	d="
M462.565247,503.916046 
	C462.592255,504.355865 462.376190,504.891968 461.853516,505.395020 
	C461.805328,504.912048 462.063782,504.462189 462.565247,503.916046 
z"/>
<path fill="#33558A" opacity="1.000000" stroke="none" 
	d="
M465.512573,499.867493 
	C465.544617,500.311554 465.342712,500.840088 464.843506,501.302582 
	C464.790314,500.808319 465.034454,500.380127 465.512573,499.867493 
z"/>
<path fill="#33558A" opacity="1.000000" stroke="none" 
	d="
M478.643616,481.933044 
	C478.668396,482.370575 478.436890,482.929749 477.886932,483.505493 
	C477.841400,483.032928 478.114349,482.543793 478.643616,481.933044 
z"/>
<path fill="#33558A" opacity="1.000000" stroke="none" 
	d="
M456.633789,511.999359 
	C456.671112,512.429382 456.451019,512.979248 455.921204,513.570740 
	C455.866455,513.114624 456.121399,512.616943 456.633789,511.999359 
z"/>
<path fill="#33558A" opacity="1.000000" stroke="none" 
	d="
M494.665405,459.976654 
	C494.693878,460.406189 494.464264,460.964233 493.920258,461.564148 
	C493.873016,461.105713 494.140198,460.605438 494.665405,459.976654 
z"/>
<path fill="#33558A" opacity="1.000000" stroke="none" 
	d="
M467.661835,496.957947 
	C467.679321,497.388763 467.442474,497.940369 466.889343,498.506897 
	C466.851227,498.040802 467.129364,497.559784 467.661835,496.957947 
z"/>
<path fill="#33558A" opacity="1.000000" stroke="none" 
	d="
M493.307861,461.791504 
	C493.439178,461.997650 493.352325,462.315613 493.017395,462.721741 
	C492.755005,462.464935 492.861786,462.162720 493.307861,461.791504 
z"/>
<path fill="#33558A" opacity="1.000000" stroke="none" 
	d="
M437.149536,538.818604 
	C437.291351,539.005798 437.251068,539.308838 436.968018,539.677734 
	C436.692169,539.439819 436.772888,539.170105 437.149536,538.818604 
z"/>
<path fill="#33558A" opacity="1.000000" stroke="none" 
	d="
M483.071899,475.838928 
	C483.500977,476.050140 483.475494,476.332367 482.923157,476.618927 
	C482.639099,476.374786 482.712738,476.136993 483.071899,475.838928 
z"/>
<path fill="#33558A" opacity="1.000000" stroke="none" 
	d="
M464.885834,550.169067 
	C464.464233,549.955383 464.494659,549.657715 465.045776,549.333984 
	C465.328644,549.572693 465.252441,549.831726 464.885834,550.169067 
z"/>
<path fill="#33558A" opacity="1.000000" stroke="none" 
	d="
M487.488525,469.849976 
	C487.602722,470.063538 487.472534,470.376740 487.100830,470.798950 
	C486.987579,470.588531 487.115845,470.269104 487.488525,469.849976 
z"/>
<path fill="#33558A" opacity="1.000000" stroke="none" 
	d="
M476.494873,484.850677 
	C476.606720,485.065399 476.471558,485.376465 476.094727,485.795105 
	C475.984650,485.584137 476.116241,485.265564 476.494873,484.850677 
z"/>
<path fill="#33558A" opacity="1.000000" stroke="none" 
	d="
M496.265686,457.791382 
	C496.393555,457.995392 496.306976,458.329956 495.961243,458.757843 
	C495.818481,458.541412 495.934845,458.231659 496.265686,457.791382 
z"/>
<path fill="#33558A" opacity="1.000000" stroke="none" 
	d="
M488.169983,468.811188 
	C488.310822,469.000916 488.265839,469.307922 487.975830,469.683289 
	C487.703735,469.442963 487.788147,469.168549 488.169983,468.811188 
z"/>
<path fill="#33558A" opacity="1.000000" stroke="none" 
	d="
M477.226990,483.793030 
	C477.362427,483.991394 477.298553,484.303619 476.985901,484.687378 
	C476.719604,484.435852 476.816467,484.151855 477.226990,483.793030 
z"/>
<path fill="#33558A" opacity="1.000000" stroke="none" 
	d="
M431.480103,546.850281 
	C431.599792,547.061340 431.477264,547.377380 431.116089,547.808777 
	C430.997589,547.601196 431.117737,547.278198 431.480103,546.850281 
z"/>
<path fill="#33558A" opacity="1.000000" stroke="none" 
	d="
M499.143799,453.808594 
	C499.556091,454.037964 499.514282,454.338318 498.953033,454.651062 
	C498.677948,454.402985 498.763367,454.141693 499.143799,453.808594 
z"/>
<path fill="#33558A" opacity="1.000000" stroke="none" 
	d="
M466.902802,547.146057 
	C466.483429,546.952271 466.503540,546.657471 467.032593,546.313965 
	C467.308350,546.533508 467.241943,546.793396 466.902802,547.146057 
z"/>
<path fill="#33558A" opacity="1.000000" stroke="none" 
	d="
M491.081665,464.840057 
	C491.507629,465.049500 491.481903,465.335693 490.933105,465.635315 
	C490.651459,465.395660 490.724762,465.151672 491.081665,464.840057 
z"/>
<path fill="#33558A" opacity="1.000000" stroke="none" 
	d="
M432.146606,545.818176 
	C432.289001,546.005615 432.250183,546.309631 431.967407,546.678223 
	C431.690063,546.439392 431.770691,546.170044 432.146606,545.818176 
z"/>
<path fill="#33558A" opacity="1.000000" stroke="none" 
	d="
M480.119080,479.818207 
	C480.249756,480.011810 480.190704,480.336731 479.871643,480.732483 
	C479.623871,480.483856 479.729736,480.199280 480.119080,479.818207 
z"/>
<path fill="#33558A" opacity="1.000000" stroke="none" 
	d="
M469.186768,494.800232 
	C469.317596,494.998718 469.246460,495.329681 468.915680,495.744324 
	C468.668304,495.493896 468.777863,495.195465 469.186768,494.800232 
z"/>
<path fill="#33558A" opacity="1.000000" stroke="none" 
	d="
M463.351318,502.802002 
	C463.479309,503.010773 463.380981,503.328369 463.037781,503.742767 
	C462.903595,503.529968 463.014313,503.220398 463.351318,502.802002 
z"/>
<path fill="#33558A" opacity="1.000000" stroke="none" 
	d="
M461.095703,505.829590 
	C461.517822,506.045654 461.487305,506.334778 460.934662,506.634338 
	C460.653442,506.390778 460.730286,506.143402 461.095703,505.829590 
z"/>
<path fill="#33558A" opacity="1.000000" stroke="none" 
	d="
M458.236877,509.792816 
	C458.372192,509.991943 458.305328,510.305115 457.990204,510.693268 
	C457.723114,510.441589 457.820709,510.154419 458.236877,509.792816 
z"/>
<path fill="#33558A" opacity="1.000000" stroke="none" 
	d="
M457.504242,510.858643 
	C457.616455,511.071930 457.482666,511.384247 457.107544,511.805756 
	C456.996887,511.595825 457.127563,511.276733 457.504242,510.858643 
z"/>
<path fill="#33558A" opacity="1.000000" stroke="none" 
	d="
M466.227783,498.800171 
	C466.364685,498.995300 466.302887,499.307922 465.995544,499.700378 
	C465.731293,499.456512 465.824280,499.169006 466.227783,498.800171 
z"/>
<path fill="#33558A" opacity="1.000000" stroke="none" 
	d="
M453.045227,516.853760 
	C453.481689,517.056458 453.462677,517.331909 452.912842,517.610291 
	C452.627258,517.368896 452.696503,517.139954 453.045227,516.853760 
z"/>
<path fill="#33558A" opacity="1.000000" stroke="none" 
	d="
M450.157074,520.814575 
	C450.297485,521.003052 450.254089,521.306213 449.967468,521.674683 
	C449.693756,521.434937 449.776764,521.164734 450.157074,520.814575 
z"/>
<path fill="#33558A" opacity="1.000000" stroke="none" 
	d="
M449.478424,521.847656 
	C449.594788,522.060120 449.468719,522.375305 449.100891,522.799805 
	C448.984741,522.589478 449.110352,522.269958 449.478424,521.847656 
z"/>
<path fill="#33558A" opacity="1.000000" stroke="none" 
	d="
M485.285889,472.797028 
	C485.419678,472.998383 485.342102,473.316376 485.017700,473.723267 
	C484.758087,473.474091 484.859314,473.174591 485.285889,472.797028 
z"/>
<path fill="#33558A" opacity="1.000000" stroke="none" 
	d="
M468.869446,544.157593 
	C468.459869,543.955505 468.488037,543.653259 469.016663,543.296692 
	C469.289062,543.516541 469.219116,543.788269 468.869446,544.157593 
z"/>
<path fill="#33558A" opacity="1.000000" stroke="none" 
	d="
M445.118317,527.815186 
	C445.534760,528.042114 445.496124,528.333801 444.936981,528.630127 
	C444.655670,528.380432 444.737915,528.128906 445.118317,527.815186 
z"/>
<path fill="#33558A" opacity="1.000000" stroke="none" 
	d="
M442.199829,531.806885 
	C442.339417,531.997681 442.287292,532.308777 441.990784,532.698120 
	C441.723694,532.459412 441.810944,532.176331 442.199829,531.806885 
z"/>
<path fill="#33558A" opacity="1.000000" stroke="none" 
	d="
M472.053101,490.850525 
	C472.485931,491.054413 472.465393,491.331879 471.917053,491.614838 
	C471.633362,491.374451 471.703522,491.142395 472.053101,490.850525 
z"/>
<path fill="#33558A" opacity="1.000000" stroke="none" 
	d="
M440.009888,534.877686 
	C440.454926,535.066162 440.445435,535.329651 439.902039,535.594360 
	C439.617554,535.358398 439.679962,535.144104 440.009888,534.877686 
z"/>
<path fill="#33558A" opacity="1.000000" stroke="none" 
	d="
M472.948547,538.127563 
	C472.516571,537.943848 472.527313,537.662415 473.057983,537.344910 
	C473.335388,537.565430 473.273193,537.805786 472.948547,538.127563 
z"/>
<path fill="#33558A" opacity="1.000000" stroke="none" 
	d="
M464.010010,501.876556 
	C464.160309,501.791840 464.374939,502.194824 464.374939,502.194824 
	C464.374939,502.194824 464.130768,502.580200 463.900879,502.590088 
	C463.617279,502.352631 463.680206,502.139740 464.010010,501.876556 
z"/>
<path fill="#33558A" opacity="1.000000" stroke="none" 
	d="
M470.889038,541.160400 
	C470.471771,540.955078 470.498932,540.658447 471.037964,540.323730 
	C471.314423,540.551880 471.242310,540.812988 470.889038,541.160400 
z"/>
<path fill="#33558A" opacity="1.000000" stroke="none" 
	d="
M434.996399,541.877075 
	C435.140961,541.802734 435.360626,542.192688 435.360626,542.192688 
	C435.360626,542.192688 435.109619,542.562744 434.883972,542.554810 
	C434.610260,542.311829 434.674744,542.113342 434.996399,541.877075 
z"/>
<path fill="#FCFDFD" opacity="1.000000" stroke="none" 
	d="
M374.143921,485.139648 
	C378.677032,472.588684 378.677032,472.588104 391.928558,472.661499 
	C393.591736,472.670715 395.255615,472.663483 396.917908,472.708801 
	C405.342316,472.938446 408.612213,477.632874 405.911621,485.601074 
	C403.469269,492.807281 397.225281,497.596985 389.398163,497.858093 
	C383.090393,498.068512 376.769989,497.900726 369.958862,497.900726 
	C371.382874,493.583557 372.712463,489.552582 374.143921,485.139648 
z"/>
<path fill="#FCFDFD" opacity="1.000000" stroke="none" 
	d="
M112.061981,515.088623 
	C116.442986,502.498566 120.939133,490.359741 124.880676,478.043457 
	C126.155930,474.058563 128.029694,472.880951 131.939087,473.242004 
	C137.056961,473.714630 142.269135,473.340759 147.348099,474.021881 
	C156.171631,475.205170 159.996231,480.183716 158.684158,488.874908 
	C157.179672,498.840515 153.691818,508.154388 147.586746,516.297363 
	C142.037094,523.699585 134.316391,527.229431 125.277023,527.766724 
	C119.651047,528.101074 113.989006,527.828857 107.734673,527.828857 
	C109.212128,523.509460 110.586937,519.490173 112.061981,515.088623 
z"/>
<path fill="#FCFDFD" opacity="1.000000" stroke="none" 
	d="
M498.159393,501.134460 
	C503.264465,493.815887 508.182129,486.803375 513.736450,478.882965 
	C513.736450,490.174316 513.736450,500.332184 513.736450,510.794373 
	C506.598267,510.794373 499.446442,510.794373 491.598969,510.794373 
	C493.935211,507.365417 495.953613,504.402985 498.159393,501.134460 
z"/>
</svg>